<?xml version="1.0" encoding="UTF-8"?>
<svg xmlns="http://www.w3.org/2000/svg" xmlns:xlink="http://www.w3.org/1999/xlink" width="24px" height="24px" viewBox="0 0 24 24" version="1.1">
<g id="surface1">
<path style=" stroke:none;fill-rule:nonzero;fill:rgb(0%,0%,0%);fill-opacity:1;" d="M 19.03125 21.84375 L 16.726562 21.84375 L 16.257812 20.4375 L 7.742188 20.4375 L 7.273438 21.84375 L 4.96875 21.84375 C 4.582031 21.84375 4.265625 22.160156 4.265625 22.546875 C 4.265625 22.933594 4.582031 23.25 4.96875 23.25 L 19.03125 23.25 C 19.417969 23.25 19.734375 22.933594 19.734375 22.546875 C 19.734375 22.160156 19.417969 21.84375 19.03125 21.84375 Z M 19.03125 21.84375 "/>
<path style=" stroke:none;fill-rule:nonzero;fill:rgb(0%,0%,0%);fill-opacity:1;" d="M 19.03125 4.96875 C 18.644531 4.96875 18.328125 5.285156 18.328125 5.671875 C 18.328125 6.058594 18.644531 6.375 19.03125 6.375 C 19.417969 6.375 19.734375 6.058594 19.734375 5.671875 C 19.734375 5.285156 19.417969 4.96875 19.03125 4.96875 Z M 19.03125 4.96875 "/>
<path style=" stroke:none;fill-rule:nonzero;fill:rgb(0%,0%,0%);fill-opacity:1;" d="M 21.84375 0.75 L 2.109375 0.75 C 0.945312 0.75 0 1.695312 0 2.859375 L 0 14.8125 L 4.265625 14.8125 L 4.265625 12.703125 C 4.265625 12.316406 4.582031 12 4.96875 12 L 6.054688 12 C 6.128906 11.796875 6.210938 11.59375 6.304688 11.398438 L 5.535156 10.628906 C 5.261719 10.355469 5.261719 9.910156 5.535156 9.632812 L 7.523438 7.644531 C 7.800781 7.371094 8.246094 7.371094 8.519531 7.644531 L 9.289062 8.414062 C 9.484375 8.320312 9.6875 8.238281 9.890625 8.164062 L 9.890625 7.078125 C 9.890625 6.691406 10.207031 6.375 10.59375 6.375 L 13.40625 6.375 C 13.792969 6.375 14.109375 6.691406 14.109375 7.078125 L 14.109375 8.164062 C 14.3125 8.238281 14.515625 8.320312 14.710938 8.414062 L 15.480469 7.644531 C 15.753906 7.371094 16.199219 7.371094 16.476562 7.644531 L 18.464844 9.632812 C 18.738281 9.910156 18.738281 10.355469 18.464844 10.628906 L 17.695312 11.398438 C 17.789062 11.59375 17.871094 11.796875 17.945312 12 L 19.03125 12 C 19.417969 12 19.734375 12.316406 19.734375 12.703125 L 19.734375 14.8125 L 24 14.8125 L 24 2.859375 C 24 1.695312 23.007812 0.75 21.84375 0.75 Z M 19.03125 7.78125 C 17.867188 7.78125 16.921875 6.835938 16.921875 5.671875 C 16.921875 4.507812 17.867188 3.5625 19.03125 3.5625 C 20.195312 3.5625 21.140625 4.507812 21.140625 5.671875 C 21.140625 6.835938 20.195312 7.78125 19.03125 7.78125 Z M 19.03125 7.78125 "/>
<path style=" stroke:none;fill-rule:nonzero;fill:rgb(0%,0%,0%);fill-opacity:1;" d="M 9.890625 14.109375 C 9.890625 14.351562 9.945312 14.585938 10.027344 14.8125 L 13.972656 14.8125 C 14.054688 14.585938 14.109375 14.351562 14.109375 14.109375 C 14.109375 12.945312 13.164062 12 12 12 C 10.835938 12 9.890625 12.945312 9.890625 14.109375 Z M 9.890625 14.109375 "/>
<path style=" stroke:none;fill-rule:nonzero;fill:rgb(0%,0%,0%);fill-opacity:1;" d="M 7.253906 12.878906 C 7.175781 13.1875 6.894531 13.40625 6.574219 13.40625 L 5.671875 13.40625 L 5.671875 14.8125 L 8.578125 14.8125 C 8.53125 14.582031 8.484375 14.347656 8.484375 14.109375 C 8.484375 12.171875 10.0625 10.59375 12 10.59375 C 13.9375 10.59375 15.515625 12.171875 15.515625 14.109375 C 15.515625 14.347656 15.46875 14.582031 15.421875 14.8125 L 18.328125 14.8125 L 18.328125 13.40625 L 17.425781 13.40625 C 17.105469 13.40625 16.824219 13.1875 16.746094 12.878906 C 16.632812 12.441406 16.457031 12.019531 16.222656 11.625 C 16.0625 11.351562 16.105469 11 16.332031 10.773438 L 16.972656 10.132812 L 15.976562 9.136719 L 15.335938 9.777344 C 15.109375 10.003906 14.757812 10.050781 14.484375 9.886719 C 14.089844 9.652344 13.667969 9.476562 13.230469 9.363281 C 12.921875 9.285156 12.703125 9.003906 12.703125 8.683594 L 12.703125 7.78125 L 11.296875 7.78125 L 11.296875 8.683594 C 11.296875 9.003906 11.078125 9.285156 10.769531 9.363281 C 10.332031 9.476562 9.910156 9.652344 9.515625 9.886719 C 9.242188 10.050781 8.890625 10.003906 8.664062 9.777344 L 8.023438 9.136719 L 7.027344 10.132812 L 7.667969 10.773438 C 7.894531 11 7.9375 11.351562 7.777344 11.625 C 7.542969 12.019531 7.367188 12.441406 7.253906 12.878906 Z M 7.253906 12.878906 "/>
<path style=" stroke:none;fill-rule:nonzero;fill:rgb(0%,0%,0%);fill-opacity:1;" d="M 0 16.921875 C 0 18.085938 0.945312 19.03125 2.109375 19.03125 L 21.84375 19.03125 C 23.007812 19.03125 24 18.085938 24 16.921875 L 24 16.21875 L 0 16.21875 Z M 0 16.921875 "/>
</g>
</svg>
