<?xml version="1.0" encoding="UTF-8"?>
<svg xmlns="http://www.w3.org/2000/svg" xmlns:xlink="http://www.w3.org/1999/xlink" width="24px" height="24px" viewBox="0 0 24 24" version="1.1">
<g id="surface1">
<path style=" stroke:none;fill-rule:evenodd;fill:rgb(0%,0%,0%);fill-opacity:1;" d="M 15.886719 16.617188 L 8.097656 16.617188 C 7.296875 16.617188 6.636719 15.957031 6.636719 15.15625 L 6.636719 8.84375 C 6.636719 8.027344 7.296875 7.367188 8.097656 7.367188 L 15.886719 7.367188 C 16.703125 7.367188 17.363281 8.027344 17.363281 8.84375 L 17.363281 15.15625 C 17.363281 15.957031 16.703125 16.617188 15.886719 16.617188 Z M 8.367188 13.695312 C 8.335938 13.695312 8.308594 13.695312 8.28125 13.679688 C 8.15625 13.636719 8.097656 13.496094 8.15625 13.371094 L 8.660156 12.105469 L 8.660156 12.089844 L 9.574219 9.8125 L 9.574219 9.800781 C 9.589844 9.773438 9.601562 9.742188 9.632812 9.730469 C 9.644531 9.703125 9.671875 9.6875 9.703125 9.671875 L 9.714844 9.671875 C 9.742188 9.660156 9.757812 9.660156 9.785156 9.660156 C 9.8125 9.660156 9.84375 9.660156 9.871094 9.671875 L 9.882812 9.671875 C 9.914062 9.6875 9.941406 9.703125 9.953125 9.730469 C 9.984375 9.742188 9.996094 9.773438 10.011719 9.800781 L 10.011719 9.8125 L 10.925781 12.089844 L 10.925781 12.105469 L 11.429688 13.371094 C 11.472656 13.496094 11.417969 13.636719 11.304688 13.679688 C 11.175781 13.722656 11.035156 13.667969 10.996094 13.554688 L 10.542969 12.429688 L 9.039062 12.429688 L 8.589844 13.554688 C 8.546875 13.636719 8.464844 13.695312 8.367188 13.695312 Z M 13.722656 13.707031 L 12.472656 13.707031 C 12.34375 13.707031 12.246094 13.609375 12.246094 13.484375 C 12.246094 13.34375 12.34375 13.246094 12.472656 13.246094 L 13.484375 13.246094 L 13.484375 10.109375 L 12.472656 10.109375 C 12.34375 10.109375 12.246094 10.011719 12.246094 9.882812 C 12.246094 9.742188 12.34375 9.644531 12.472656 9.644531 L 14.960938 9.644531 C 15.085938 9.644531 15.199219 9.742188 15.199219 9.882812 C 15.199219 10.011719 15.085938 10.109375 14.960938 10.109375 L 13.949219 10.109375 L 13.949219 13.246094 L 14.960938 13.246094 C 15.085938 13.246094 15.199219 13.34375 15.199219 13.484375 C 15.199219 13.609375 15.085938 13.707031 14.960938 13.707031 Z M 10.363281 11.949219 L 9.785156 10.53125 L 9.222656 11.949219 Z M 10.363281 11.949219 "/>
<path style=" stroke:none;fill-rule:evenodd;fill:rgb(0%,0%,0%);fill-opacity:1;" d="M 10.753906 7.84375 C 10.628906 7.84375 10.515625 7.734375 10.515625 7.605469 L 10.515625 2.304688 C 10.515625 2.179688 10.628906 2.066406 10.753906 2.066406 C 10.882812 2.066406 10.980469 2.179688 10.980469 2.304688 L 10.980469 7.605469 C 10.980469 7.734375 10.882812 7.84375 10.753906 7.84375 Z M 10.753906 7.84375 "/>
<path style=" stroke:none;fill-rule:evenodd;fill:rgb(0%,0%,0%);fill-opacity:1;" d="M 10.753906 2.542969 C 10.050781 2.542969 9.476562 1.96875 9.476562 1.265625 C 9.476562 0.578125 10.050781 0 10.753906 0 C 11.457031 0 12.019531 0.578125 12.019531 1.265625 C 12.019531 1.96875 11.457031 2.542969 10.753906 2.542969 Z M 10.753906 2.542969 "/>
<path style=" stroke:none;fill-rule:evenodd;fill:rgb(0%,0%,0%);fill-opacity:1;" d="M 13.246094 7.84375 C 13.117188 7.84375 13.003906 7.734375 13.003906 7.605469 L 13.003906 5.414062 C 13.003906 5.285156 13.117188 5.175781 13.246094 5.175781 C 13.371094 5.175781 13.484375 5.285156 13.484375 5.414062 L 13.484375 7.605469 C 13.484375 7.734375 13.371094 7.84375 13.246094 7.84375 Z M 13.246094 7.84375 "/>
<path style=" stroke:none;fill-rule:evenodd;fill:rgb(0%,0%,0%);fill-opacity:1;" d="M 13.246094 5.652344 C 12.542969 5.652344 11.980469 5.074219 11.980469 4.371094 C 11.980469 3.683594 12.542969 3.105469 13.246094 3.105469 C 13.949219 3.105469 14.507812 3.683594 14.507812 4.371094 C 14.507812 5.074219 13.949219 5.652344 13.246094 5.652344 Z M 13.246094 5.652344 "/>
<path style=" stroke:none;fill-rule:evenodd;fill:rgb(0%,0%,0%);fill-opacity:1;" d="M 15.734375 7.84375 C 15.605469 7.84375 15.492188 7.734375 15.492188 7.605469 L 15.492188 4.175781 C 15.492188 3.488281 16.054688 2.925781 16.746094 2.925781 L 18.234375 2.925781 C 18.363281 2.925781 18.472656 3.035156 18.472656 3.164062 C 18.472656 3.289062 18.363281 3.402344 18.234375 3.402344 L 16.746094 3.402344 C 16.324219 3.402344 15.972656 3.738281 15.972656 4.175781 L 15.972656 7.605469 C 15.972656 7.734375 15.859375 7.84375 15.734375 7.84375 Z M 15.734375 7.84375 "/>
<path style=" stroke:none;fill-rule:evenodd;fill:rgb(0%,0%,0%);fill-opacity:1;" d="M 19.277344 4.429688 C 18.574219 4.429688 17.996094 3.867188 17.996094 3.164062 C 17.996094 2.460938 18.574219 1.898438 19.277344 1.898438 C 19.980469 1.898438 20.542969 2.460938 20.542969 3.164062 C 20.542969 3.867188 19.980469 4.429688 19.277344 4.429688 Z M 19.277344 4.429688 "/>
<path style=" stroke:none;fill-rule:evenodd;fill:rgb(0%,0%,0%);fill-opacity:1;" d="M 8.265625 7.84375 C 8.125 7.84375 8.027344 7.734375 8.027344 7.605469 L 8.027344 4.175781 C 8.027344 3.738281 7.675781 3.402344 7.253906 3.402344 L 5.765625 3.402344 C 5.625 3.402344 5.527344 3.289062 5.527344 3.164062 C 5.527344 3.035156 5.625 2.925781 5.765625 2.925781 L 7.253906 2.925781 C 7.945312 2.925781 8.492188 3.488281 8.492188 4.175781 L 8.492188 7.605469 C 8.492188 7.734375 8.394531 7.84375 8.265625 7.84375 Z M 8.265625 7.84375 "/>
<path style=" stroke:none;fill-rule:evenodd;fill:rgb(0%,0%,0%);fill-opacity:1;" d="M 4.722656 4.429688 C 4.019531 4.429688 3.457031 3.867188 3.457031 3.164062 C 3.457031 2.460938 4.019531 1.898438 4.722656 1.898438 C 5.425781 1.898438 5.988281 2.460938 5.988281 3.164062 C 5.988281 3.867188 5.425781 4.429688 4.722656 4.429688 Z M 4.722656 4.429688 "/>
<path style=" stroke:none;fill-rule:evenodd;fill:rgb(0%,0%,0%);fill-opacity:1;" d="M 21.539062 9.6875 L 17.125 9.6875 C 17 9.6875 16.886719 9.574219 16.886719 9.449219 C 16.886719 9.320312 17 9.222656 17.125 9.222656 L 21.539062 9.222656 C 21.667969 9.222656 21.765625 9.320312 21.765625 9.449219 C 21.765625 9.574219 21.667969 9.6875 21.539062 9.6875 Z M 21.539062 9.6875 "/>
<path style=" stroke:none;fill-rule:evenodd;fill:rgb(0%,0%,0%);fill-opacity:1;" d="M 22.566406 10.726562 C 21.878906 10.726562 21.300781 10.152344 21.300781 9.449219 C 21.300781 8.746094 21.878906 8.183594 22.566406 8.183594 C 23.269531 8.183594 23.84375 8.746094 23.84375 9.449219 C 23.84375 10.152344 23.269531 10.726562 22.566406 10.726562 Z M 22.566406 10.726562 "/>
<path style=" stroke:none;fill-rule:evenodd;fill:rgb(0%,0%,0%);fill-opacity:1;" d="M 18.445312 12.230469 L 17.125 12.230469 C 17 12.230469 16.886719 12.132812 16.886719 11.992188 C 16.886719 11.867188 17 11.769531 17.125 11.769531 L 18.445312 11.769531 C 18.574219 11.769531 18.671875 11.867188 18.671875 11.992188 C 18.671875 12.132812 18.574219 12.230469 18.445312 12.230469 Z M 18.445312 12.230469 "/>
<path style=" stroke:none;fill-rule:evenodd;fill:rgb(0%,0%,0%);fill-opacity:1;" d="M 19.472656 13.273438 C 18.785156 13.273438 18.207031 12.695312 18.207031 11.992188 C 18.207031 11.304688 18.785156 10.726562 19.472656 10.726562 C 20.175781 10.726562 20.753906 11.304688 20.753906 11.992188 C 20.753906 12.695312 20.175781 13.273438 19.472656 13.273438 Z M 19.472656 13.273438 "/>
<path style=" stroke:none;fill-rule:evenodd;fill:rgb(0%,0%,0%);fill-opacity:1;" d="M 21.539062 14.761719 L 17.125 14.761719 C 17 14.761719 16.886719 14.664062 16.886719 14.523438 C 16.886719 14.398438 17 14.296875 17.125 14.296875 L 21.539062 14.296875 C 21.667969 14.296875 21.765625 14.398438 21.765625 14.523438 C 21.765625 14.664062 21.667969 14.761719 21.539062 14.761719 Z M 21.539062 14.761719 "/>
<path style=" stroke:none;fill-rule:evenodd;fill:rgb(0%,0%,0%);fill-opacity:1;" d="M 22.566406 15.804688 C 21.878906 15.804688 21.300781 15.226562 21.300781 14.523438 C 21.300781 13.835938 21.878906 13.257812 22.566406 13.257812 C 23.269531 13.257812 23.84375 13.835938 23.84375 14.523438 C 23.84375 15.226562 23.269531 15.804688 22.566406 15.804688 Z M 22.566406 15.804688 "/>
<path style=" stroke:none;fill-rule:evenodd;fill:rgb(0%,0%,0%);fill-opacity:1;" d="M 10.753906 21.917969 C 10.628906 21.917969 10.515625 21.820312 10.515625 21.695312 L 10.515625 16.394531 C 10.515625 16.253906 10.628906 16.15625 10.753906 16.15625 C 10.882812 16.15625 10.980469 16.253906 10.980469 16.394531 L 10.980469 21.695312 C 10.980469 21.820312 10.882812 21.917969 10.753906 21.917969 Z M 10.753906 21.917969 "/>
<path style=" stroke:none;fill-rule:evenodd;fill:rgb(0%,0%,0%);fill-opacity:1;" d="M 10.753906 24 C 10.050781 24 9.476562 23.421875 9.476562 22.71875 C 9.476562 22.015625 10.050781 21.457031 10.753906 21.457031 C 11.457031 21.457031 12.019531 22.015625 12.019531 22.71875 C 12.019531 23.421875 11.457031 24 10.753906 24 Z M 10.753906 24 "/>
<path style=" stroke:none;fill-rule:evenodd;fill:rgb(0%,0%,0%);fill-opacity:1;" d="M 13.246094 18.8125 C 13.117188 18.8125 13.003906 18.714844 13.003906 18.585938 L 13.003906 16.394531 C 13.003906 16.253906 13.117188 16.15625 13.246094 16.15625 C 13.371094 16.15625 13.484375 16.253906 13.484375 16.394531 L 13.484375 18.585938 C 13.484375 18.714844 13.371094 18.8125 13.246094 18.8125 Z M 13.246094 18.8125 "/>
<path style=" stroke:none;fill-rule:evenodd;fill:rgb(0%,0%,0%);fill-opacity:1;" d="M 13.246094 20.894531 C 12.542969 20.894531 11.980469 20.316406 11.980469 19.613281 C 11.980469 18.910156 12.542969 18.347656 13.246094 18.347656 C 13.949219 18.347656 14.507812 18.910156 14.507812 19.613281 C 14.507812 20.316406 13.949219 20.894531 13.246094 20.894531 Z M 13.246094 20.894531 "/>
<path style=" stroke:none;fill-rule:evenodd;fill:rgb(0%,0%,0%);fill-opacity:1;" d="M 18.234375 21.0625 L 16.746094 21.0625 C 16.054688 21.0625 15.492188 20.511719 15.492188 19.824219 L 15.492188 16.394531 C 15.492188 16.253906 15.605469 16.15625 15.734375 16.15625 C 15.859375 16.15625 15.972656 16.253906 15.972656 16.394531 L 15.972656 19.824219 C 15.972656 20.246094 16.324219 20.597656 16.746094 20.597656 L 18.234375 20.597656 C 18.363281 20.597656 18.472656 20.695312 18.472656 20.835938 C 18.472656 20.964844 18.363281 21.0625 18.234375 21.0625 Z M 18.234375 21.0625 "/>
<path style=" stroke:none;fill-rule:evenodd;fill:rgb(0%,0%,0%);fill-opacity:1;" d="M 19.277344 22.101562 C 18.574219 22.101562 17.996094 21.527344 17.996094 20.835938 C 17.996094 20.132812 18.574219 19.558594 19.277344 19.558594 C 19.980469 19.558594 20.542969 20.132812 20.542969 20.835938 C 20.542969 21.527344 19.980469 22.101562 19.277344 22.101562 Z M 19.277344 22.101562 "/>
<path style=" stroke:none;fill-rule:evenodd;fill:rgb(0%,0%,0%);fill-opacity:1;" d="M 7.253906 21.0625 L 5.765625 21.0625 C 5.625 21.0625 5.527344 20.964844 5.527344 20.835938 C 5.527344 20.695312 5.625 20.597656 5.765625 20.597656 L 7.253906 20.597656 C 7.675781 20.597656 8.027344 20.246094 8.027344 19.824219 L 8.027344 16.394531 C 8.027344 16.253906 8.125 16.15625 8.265625 16.15625 C 8.394531 16.15625 8.492188 16.253906 8.492188 16.394531 L 8.492188 19.824219 C 8.492188 20.511719 7.945312 21.0625 7.253906 21.0625 Z M 7.253906 21.0625 "/>
<path style=" stroke:none;fill-rule:evenodd;fill:rgb(0%,0%,0%);fill-opacity:1;" d="M 4.722656 22.101562 C 4.019531 22.101562 3.457031 21.527344 3.457031 20.835938 C 3.457031 20.132812 4.019531 19.558594 4.722656 19.558594 C 5.425781 19.558594 5.988281 20.132812 5.988281 20.835938 C 5.988281 21.527344 5.425781 22.101562 4.722656 22.101562 Z M 4.722656 22.101562 "/>
<path style=" stroke:none;fill-rule:evenodd;fill:rgb(0%,0%,0%);fill-opacity:1;" d="M 6.875 9.6875 L 2.460938 9.6875 C 2.332031 9.6875 2.222656 9.589844 2.222656 9.460938 C 2.222656 9.320312 2.332031 9.222656 2.460938 9.222656 L 6.875 9.222656 C 7 9.222656 7.101562 9.320312 7.101562 9.460938 C 7.101562 9.589844 7 9.6875 6.875 9.6875 Z M 6.875 9.6875 "/>
<path style=" stroke:none;fill-rule:evenodd;fill:rgb(0%,0%,0%);fill-opacity:1;" d="M 1.421875 10.726562 C 0.730469 10.726562 0.15625 10.164062 0.15625 9.460938 C 0.15625 8.757812 0.730469 8.183594 1.421875 8.183594 C 2.121094 8.183594 2.699219 8.757812 2.699219 9.460938 C 2.699219 10.164062 2.121094 10.726562 1.421875 10.726562 Z M 1.421875 10.726562 "/>
<path style=" stroke:none;fill-rule:evenodd;fill:rgb(0%,0%,0%);fill-opacity:1;" d="M 6.875 12.230469 L 5.554688 12.230469 C 5.425781 12.230469 5.316406 12.132812 5.316406 12.007812 C 5.316406 11.878906 5.425781 11.769531 5.554688 11.769531 L 6.875 11.769531 C 7 11.769531 7.101562 11.878906 7.101562 12.007812 C 7.101562 12.132812 7 12.230469 6.875 12.230469 Z M 6.875 12.230469 "/>
<path style=" stroke:none;fill-rule:evenodd;fill:rgb(0%,0%,0%);fill-opacity:1;" d="M 4.511719 13.273438 C 3.808594 13.273438 3.246094 12.710938 3.246094 12.007812 C 3.246094 11.304688 3.808594 10.726562 4.511719 10.726562 C 5.214844 10.726562 5.792969 11.304688 5.792969 12.007812 C 5.792969 12.710938 5.214844 13.273438 4.511719 13.273438 Z M 4.511719 13.273438 "/>
<path style=" stroke:none;fill-rule:evenodd;fill:rgb(0%,0%,0%);fill-opacity:1;" d="M 6.875 14.777344 L 2.460938 14.777344 C 2.332031 14.777344 2.222656 14.664062 2.222656 14.539062 C 2.222656 14.410156 2.332031 14.296875 2.460938 14.296875 L 6.875 14.296875 C 7 14.296875 7.101562 14.410156 7.101562 14.539062 C 7.101562 14.664062 7 14.777344 6.875 14.777344 Z M 6.875 14.777344 "/>
<path style=" stroke:none;fill-rule:evenodd;fill:rgb(0%,0%,0%);fill-opacity:1;" d="M 1.421875 15.804688 C 0.730469 15.804688 0.15625 15.242188 0.15625 14.539062 C 0.15625 13.835938 0.730469 13.273438 1.421875 13.273438 C 2.121094 13.273438 2.699219 13.835938 2.699219 14.539062 C 2.699219 15.242188 2.121094 15.804688 1.421875 15.804688 Z M 1.421875 15.804688 "/>
</g>
</svg>
