<?xml version="1.0" encoding="UTF-8"?>
<svg xmlns="http://www.w3.org/2000/svg" xmlns:xlink="http://www.w3.org/1999/xlink" width="24px" height="24px" viewBox="0 0 24 24" version="1.1">
<g id="surface1">
<path style=" stroke:none;fill-rule:nonzero;fill:rgb(0%,0%,0%);fill-opacity:1;" d="M 21.15625 2.84375 C 18.1875 -0.242188 13.316406 -0.449219 10.101562 2.382812 C 6.886719 5.210938 6.46875 10.070312 9.15625 13.40625 L 7.699219 14.863281 L 7 14.15625 L 1.125 20.050781 L 1.050781 20.125 C 0.707031 20.484375 0.511719 20.957031 0.5 21.453125 L 0.5 21.5 C 0.5 22.605469 1.394531 23.5 2.5 23.5 L 2.546875 23.5 C 3.042969 23.488281 3.515625 23.292969 3.875 22.949219 L 3.949219 22.875 L 9.84375 17 L 9.140625 16.296875 L 10.59375 14.835938 C 13.929688 17.472656 18.746094 17.039062 21.558594 13.847656 C 24.371094 10.65625 24.191406 5.820312 21.15625 2.84375 Z M 19.746094 12.746094 C 17.398438 15.082031 13.605469 15.078125 11.265625 12.734375 C 8.925781 10.394531 8.925781 6.597656 11.265625 4.253906 C 13.605469 1.914062 17.398438 1.90625 19.746094 4.246094 C 20.875 5.371094 21.507812 6.898438 21.507812 8.496094 C 21.507812 10.089844 20.875 11.621094 19.746094 12.746094 Z M 19.746094 12.746094 "/>
<path style=" stroke:none;fill-rule:nonzero;fill:rgb(0%,0%,0%);fill-opacity:1;" d="M 15.5 6 C 16.328125 6 17 6.671875 17 7.5 C 17 8.328125 16.328125 9 15.5 9 C 14.671875 9 14 8.328125 14 7.5 C 14 6.671875 14.671875 6 15.5 6 C 13.796875 6 12.246094 6.972656 11.5 8.5 C 12.246094 10.03125 13.796875 11 15.5 11 C 17.203125 11 18.753906 10.03125 19.5 8.5 C 18.753906 6.972656 17.203125 6 15.5 6 Z M 15.5 6 "/>
</g>
</svg>
