<?xml version="1.0" encoding="UTF-8"?>
<svg xmlns="http://www.w3.org/2000/svg" xmlns:xlink="http://www.w3.org/1999/xlink" width="24px" height="24px" viewBox="0 0 24 24" version="1.1">
<g id="surface1">
<path style=" stroke:none;fill-rule:nonzero;fill:rgb(0%,0%,0%);fill-opacity:1;" d="M 22.566406 15.605469 C 21.332031 14.367188 19.621094 13.84375 17.417969 14.433594 L 9.574219 6.582031 L 9.679688 6.191406 C 10.128906 4.496094 9.640625 2.671875 8.40625 1.433594 C 7.144531 0.175781 5.355469 -0.289062 3.660156 0.175781 C 3.417969 0.242188 3.230469 0.433594 3.167969 0.675781 C 3.101562 0.917969 3.171875 1.175781 3.347656 1.351562 L 5.238281 3.242188 C 5.789062 3.792969 5.785156 4.679688 5.238281 5.226562 C 4.699219 5.769531 3.789062 5.769531 3.25 5.230469 L 1.359375 3.339844 C 1.183594 3.164062 0.925781 3.09375 0.683594 3.15625 C 0.441406 3.222656 0.25 3.410156 0.1875 3.652344 C -0.273438 5.328125 0.179688 7.128906 1.445312 8.394531 C 2.679688 9.628906 4.390625 10.15625 6.589844 9.566406 L 14.4375 17.417969 C 13.851562 19.617188 14.355469 21.3125 15.605469 22.566406 C 16.867188 23.828125 18.660156 24.285156 20.351562 23.824219 C 20.589844 23.757812 20.78125 23.566406 20.84375 23.324219 C 20.90625 23.082031 20.835938 22.824219 20.660156 22.648438 L 18.773438 20.757812 C 18.21875 20.207031 18.226562 19.320312 18.769531 18.773438 C 19.320312 18.226562 20.226562 18.234375 20.761719 18.769531 L 22.648438 20.660156 C 22.828125 20.835938 23.085938 20.90625 23.328125 20.84375 C 23.570312 20.777344 23.757812 20.589844 23.824219 20.347656 C 24.28125 18.671875 23.832031 16.871094 22.566406 15.605469 Z M 22.566406 15.605469 "/>
<path style=" stroke:none;fill-rule:nonzero;fill:rgb(0%,0%,0%);fill-opacity:1;" d="M 7.527344 12.496094 L 0.824219 19.199219 C -0.273438 20.296875 -0.273438 22.082031 0.824219 23.175781 C 1.921875 24.273438 3.703125 24.273438 4.800781 23.175781 L 11.503906 16.472656 Z M 4.140625 20.996094 C 3.867188 21.269531 3.421875 21.269531 3.144531 20.996094 C 2.871094 20.71875 2.871094 20.277344 3.144531 20 L 7.410156 15.734375 C 7.683594 15.460938 8.128906 15.460938 8.40625 15.734375 C 8.679688 16.011719 8.679688 16.457031 8.40625 16.730469 Z M 4.140625 20.996094 "/>
<path style=" stroke:none;fill-rule:nonzero;fill:rgb(0%,0%,0%);fill-opacity:1;" d="M 23.792969 1.417969 L 22.582031 0.207031 C 22.351562 -0.0234375 22 -0.0664062 21.722656 0.101562 L 17.992188 2.335938 C 17.601562 2.574219 17.535156 3.113281 17.859375 3.4375 L 18.15625 3.734375 L 13.421875 8.449219 L 15.410156 10.4375 L 20.144531 5.722656 L 20.5625 6.140625 C 20.886719 6.464844 21.425781 6.398438 21.664062 6.003906 L 23.898438 2.277344 C 24.066406 2 24.023438 1.644531 23.792969 1.417969 Z M 23.792969 1.417969 "/>
</g>
</svg>
