<?xml version="1.0" encoding="UTF-8"?>
<svg xmlns="http://www.w3.org/2000/svg" xmlns:xlink="http://www.w3.org/1999/xlink" width="24px" height="24px" viewBox="0 0 24 24" version="1.1">
<g id="surface1">
<path style=" stroke:none;fill-rule:nonzero;fill:rgb(0%,0%,0%);fill-opacity:1;" d="M 22.5 5.917969 L 22.5 3.75 C 22.5 2.507812 21.492188 1.5 20.25 1.5 L 3.75 1.5 C 2.507812 1.5 1.5 2.507812 1.5 3.75 L 1.5 5.917969 Z M 18.75 3 C 19.164062 3 19.5 3.335938 19.5 3.75 C 19.5 4.164062 19.164062 4.5 18.75 4.5 C 18.335938 4.5 18 4.164062 18 3.75 C 18 3.335938 18.335938 3 18.75 3 Z M 15.75 3 C 16.164062 3 16.5 3.335938 16.5 3.75 C 16.5 4.164062 16.164062 4.5 15.75 4.5 C 15.335938 4.5 15 4.164062 15 3.75 C 15 3.335938 15.335938 3 15.75 3 Z M 1.5 7.417969 L 1.5 20.25 C 1.5 21.492188 2.507812 22.5 3.75 22.5 L 20.25 22.5 C 21.492188 22.5 22.5 21.492188 22.5 20.25 L 22.5 7.417969 Z M 18.75 15 C 18.75 15.414062 18.414062 15.75 18 15.75 C 17.585938 15.75 17.25 15.414062 17.25 15 L 17.25 13.808594 L 13.28125 17.78125 C 13 18.0625 12.5 18.0625 12.21875 17.78125 L 9.695312 15.253906 L 6.46875 17.835938 C 6.332031 17.945312 6.164062 18 6 18 C 5.78125 18 5.5625 17.902344 5.414062 17.71875 C 5.15625 17.394531 5.207031 16.921875 5.53125 16.664062 L 9.28125 13.664062 C 9.578125 13.425781 10.011719 13.449219 10.28125 13.71875 L 12.75 16.191406 L 16.191406 12.75 L 15 12.75 C 14.585938 12.75 14.25 12.414062 14.25 12 C 14.25 11.585938 14.585938 11.25 15 11.25 L 18 11.25 C 18.414062 11.25 18.75 11.585938 18.75 12 Z M 18.75 15 "/>
</g>
</svg>
